{"title":"Beyond the Reach 2014 HDRip x264 AC3-FWOLF","uid":11821764,"size":1087135053,"categoryP":"video","categoryS":"movies","magnet":"?xt=urn:btih:2ff8c55c23f3b26f831517cfad7fa7c57583aab4&amp;dn=Beyond+the+Reach+2014+HDRip+x264+AC3-FWOLF&amp;tr=udp%3A%2F%2Ftracker.openbittorrent.com%3A80&amp;tr=udp%3A%2F%2Fopen.demonii.com%3A1337&amp;tr=udp%3A%2F%2Ftracker.coppersurfer.tk%3A6969&amp;tr=udp%3A%2F%2Fexodus.desync.com%3A6969","seeders":4,"leechers":2,"uploader":"sakhslitsa","files":5,"time":1429284991,"description":"imdb.... &lt;a href=&quot;\nhttp://www.imdb.com/title/tt2911668/&quot; rel=&quot;nofollow&quot; target=&quot;_NEW&quot;&gt;\nhttp://www.imdb.com/title/tt2911668/&lt;/a&gt;\n\n\n\nFormat : Matroska\nFormat version : Version 4 / Version 2\nFile size : 1.00 GiB\nDuration : 1h 31mn\nOverall bit rate mode : Variable\nOverall bit rate : 1 563 Kbps\nMovie name : Beyond the Reach 2014\nEncoded date : UTC 2015-04-17 09:28:50\n\nVideo\nID : 1\nFormat : AVC\nFormat/Info : Advanced Video Codec\nFormat profile : High@L4\nFormat settings, CABAC : Yes\nFormat settings, ReFrames : 6 frames\nCodec ID : V_MPEG4/ISO/AVC\nDuration : 1h 31mn\nBit rate mode : Variable\nBit rate : 1 179 Kbps\nMaximum bit rate : 25.0 Mbps\nWidth : 720 pixels\nHeight : 304 pixels\nDisplay aspect ratio : 2.35:1\nFrame rate mode : Constant\nFrame rate : 23.976 fps\nColor space : YUV\nChroma subsampling : 4:2:0\nBit depth : 8 bits\nScan type : Progressive\nBits/(Pixel*Frame) : 0.225\nStream size : 753 MiB (73%)\nWriting library : x264 core 142 r2479 dd79a61\nEncoding settings : cabac=1 / ref=6 / deblock=1:-2:-2 / analyse=0x3:0x133 / me=tesa / subme=11 / psy=1 / psy_rd=1.00:0.15 / mixed_ref=1 / me_range=24 / chroma_me=1 / trellis=2 / 8x8dct=1 / cqm=0 / deadzone=21,11 / fast_pskip=0 / chroma_qp_offset=-3 / threads=12 / lookahead_threads=1 / sliced_threads=0 / nr=0 / decimate=1 / interlaced=0 / bluray_compat=0 / constrained_intra=0 / bframes=6 / b_pyramid=2 / b_adapt=2 / b_bias=0 / direct=3 / weightb=1 / open_gop=0 / weightp=2 / keyint=240 / keyint_min=24 / scenecut=40 / intra_refresh=0 / rc_lookahead=60 / rc=2pass / mbtree=1 / bitrate=1179 / ratetol=1.0 / qcomp=0.60 / qpmin=0 / qpmax=69 / qpstep=4 / cplxblur=20.0 / qblur=0.5 / vbv_maxrate=25000 / vbv_bufsize=25000 / nal_hrd=vbr / filler=0 / ip_ratio=1.40 / aq=1:1.00\nDefault : Yes\nForced : No\n\nAudio\nID : 2\nFormat : AC-3\nFormat/Info : Audio Coding 3\nMode extension : CM (complete main)\nFormat settings, Endianness : Big\nCodec ID : A_AC3\nDuration : 1h 31mn\nBit rate mode : Constant\nBit rate : 384 Kbps\nChannel(s) : 6 channels\nChannel positions : Front: L C R, Side: L R, LFE\nSampling rate : 48.0 KHz\nBit depth : 16 bits\nCompression mode : Lossy\nStream size : 252 MiB (25%)\nLanguage : English\nDefault : Yes\nForced : No\n\nMenu\n00:00:00.000 : en:Chapter 1\n00:09:34.000 : en:Chapter 2\n00:21:40.000 : en:Chapter 3\n00:31:22.000 : en:Chapter 4\n00:42:01.000 : en:Chapter 5\n00:53:29.000 : en:Chapter 6\n01:05:11.000 : en:Chapter 7\n01:15:19.000 : en:Chapter 8\n01:26:28.000 : en:Chapter 9\n\n\nEncoded....................FWOLF\n\nSource.......................720p WEB-DL x264-ETRG (Thanks!)\n\nSample.....................Yes\n\nSubs.......................(srt) English\n\n\n\nGreetz To: PsiX | Blacksheep | CFR | tomcat-12...\n.....and all P2P Encoders and Groups","torrent":{"xt":"urn:btih:2ff8c55c23f3b26f831517cfad7fa7c57583aab4","amp;dn":"Beyond+the+Reach+2014+HDRip+x264+AC3-FWOLF","amp;tr":["udp%3A%2F%2Ftracker.openbittorrent.com%3A80","udp%3A%2F%2Fopen.demonii.com%3A1337","udp%3A%2F%2Ftracker.coppersurfer.tk%3A6969","udp%3A%2F%2Fexodus.desync.com%3A6969"],"infoHash":"2ff8c55c23f3b26f831517cfad7fa7c57583aab4","infoHashBuffer":{"type":"Buffer","data":[47,248,197,92,35,243,178,111,131,21,23,207,173,127,167,197,117,131,170,180]},"announce":[],"urlList":[]}}